<svg xmlns="http://www.w3.org/2000/svg" xmlns:xlink="http://www.w3.org/1999/xlink" width="938pt" height="118pt" viewBox="0.00 0.00 938.00 117.80">
<g id="graph0" class="graph" transform="scale(1 1) rotate(0) translate(4 113.8)">
<title>BancoDeDados</title>
<polygon fill="white" stroke="none" points="-4,4 -4,-113.8 934,-113.8 934,4 -4,4"/>
<!-- User -->
<g id="node1" class="node">
<title>User</title>
<polygon fill="lightgray" stroke="black" points="0,-0.5 0,-109.3 189.08,-109.3 189.08,-0.5 0,-0.5"/>
<text text-anchor="middle" x="21.22" y="-50.7" font-family="Times,serif" font-size="14.00">User</text>
<polyline fill="none" stroke="black" points="42.43,-0.5 42.43,-109.3"/>
<text text-anchor="start" x="50.43" y="-92.7" font-family="Times,serif" font-size="14.00">id: Int (PK) </text>
<text text-anchor="start" x="50.43" y="-75.9" font-family="Times,serif" font-size="14.00"> name: String </text>
<text text-anchor="start" x="50.43" y="-59.1" font-family="Times,serif" font-size="14.00"> email: String (unique) </text>
<text text-anchor="start" x="50.43" y="-42.3" font-family="Times,serif" font-size="14.00"> password: String </text>
<text text-anchor="start" x="50.43" y="-25.5" font-family="Times,serif" font-size="14.00"> createdAt: DateTime </text>
<text text-anchor="start" x="50.43" y="-8.7" font-family="Times,serif" font-size="14.00"> updatedAt: DateTime </text>
</g>
<!-- Account -->
<g id="node2" class="node">
<title>Account</title>
<polygon fill="lightgray" stroke="black" points="290.78,-0.5 290.78,-109.3 512.51,-109.3 512.51,-0.5 290.78,-0.5"/>
<text text-anchor="middle" x="322.49" y="-50.7" font-family="Times,serif" font-size="14.00">Account</text>
<polyline fill="none" stroke="black" points="354.2,-0.5 354.2,-109.3"/>
<text text-anchor="start" x="362.2" y="-92.7" font-family="Times,serif" font-size="14.00">id: Int (PK) </text>
<text text-anchor="start" x="362.2" y="-75.9" font-family="Times,serif" font-size="14.00"> balance: Float </text>
<text text-anchor="start" x="362.2" y="-59.1" font-family="Times,serif" font-size="14.00"> number: String (unique) </text>
<text text-anchor="start" x="362.2" y="-42.3" font-family="Times,serif" font-size="14.00"> createdAt: DateTime </text>
<text text-anchor="start" x="362.2" y="-25.5" font-family="Times,serif" font-size="14.00"> updatedAt: DateTime </text>
<text text-anchor="start" x="362.2" y="-8.7" font-family="Times,serif" font-size="14.00"> userId: Int (FK) </text>
</g>
<!-- User&#45;&gt;Account -->
<g id="edge1" class="edge">
<title>User-&gt;Account</title>
<path fill="none" stroke="blue" d="M189.57,-54.9C217.83,-54.9 249.24,-54.9 279.02,-54.9"/>
<polygon fill="blue" stroke="blue" points="278.82,-58.4 288.82,-54.9 278.82,-51.4 278.82,-58.4"/>
<text text-anchor="middle" x="239.93" y="-59.1" font-family="Times,serif" font-size="14.00">1:1 (userId)</text>
</g>
<!-- Transaction -->
<g id="node3" class="node">
<title>Transaction</title>
<polygon fill="lightgray" stroke="black" points="667.1,-0.5 667.1,-109.3 930,-109.3 930,-0.5 667.1,-0.5"/>
<text text-anchor="middle" x="708.14" y="-50.7" font-family="Times,serif" font-size="14.00">Transaction</text>
<polyline fill="none" stroke="black" points="749.18,-0.5 749.18,-109.3"/>
<text text-anchor="start" x="757.18" y="-92.7" font-family="Times,serif" font-size="14.00">id: Int (PK) </text>
<text text-anchor="start" x="757.18" y="-75.9" font-family="Times,serif" font-size="14.00"> amount: Float </text>
<text text-anchor="start" x="757.18" y="-59.1" font-family="Times,serif" font-size="14.00"> status: String </text>
<text text-anchor="start" x="757.18" y="-42.3" font-family="Times,serif" font-size="14.00"> createdAt: DateTime </text>
<text text-anchor="start" x="757.18" y="-25.5" font-family="Times,serif" font-size="14.00"> senderAccountId: Int (FK) </text>
<text text-anchor="start" x="757.18" y="-8.7" font-family="Times,serif" font-size="14.00"> receiverAccountId: Int (FK) </text>
</g>
<!-- Account&#45;&gt;Transaction -->
<g id="edge2" class="edge">
<title>Account-&gt;Transaction</title>
<path fill="none" stroke="green" d="M512.91,-54.9C557.08,-54.9 608.53,-54.9 655.44,-54.9"/>
<polygon fill="green" stroke="green" points="655.43,-58.4 665.43,-54.9 655.43,-51.4 655.43,-58.4"/>
<text text-anchor="middle" x="589.81" y="-59.1" font-family="Times,serif" font-size="14.00">1:N sentTransactions</text>
</g>
<!-- Transaction&#45;&gt;Account -->
<g id="edge3" class="edge">
<title>Transaction-&gt;Account</title>
<path fill="none" stroke="darkorange" d="M666.92,-35.57C660.9,-35 654.94,-34.51 649.1,-34.1 596.52,-30.43 583.05,-29.86 530.51,-34.1 528.33,-34.28 526.12,-34.47 523.9,-34.68"/>
<polygon fill="darkorange" stroke="darkorange" points="523.8,-31.17 514.22,-35.68 524.52,-38.13 523.8,-31.17"/>
<text text-anchor="middle" x="589.81" y="-38.3" font-family="Times,serif" font-size="14.00">N:1 receiverAccount</text>
</g>
</g>
</svg>